<svg width="200" height="197" viewBox="0 0 200 197" fill="none" xmlns="http://www.w3.org/2000/svg">
<path d="M100.565 196.027C120.37 196.027 136.425 194.087 136.425 191.693C136.425 189.299 120.37 187.359 100.565 187.359C80.7597 187.359 64.7046 189.299 64.7046 191.693C64.7046 194.087 80.7597 196.027 100.565 196.027Z" fill="#EAF4DD"/>
<path d="M190.632 168.172H167.019V176.507H190.632V168.172Z" stroke="#74B31B" stroke-linecap="round" stroke-linejoin="round"/>
<path d="M189.891 176.493H167.761V189.913H189.891V176.493Z" stroke="#74B31B" stroke-linecap="round" stroke-linejoin="round"/>
<path d="M181.361 168.214H176.29V190.029H181.361V168.214Z" stroke="#74B31B" stroke-linecap="round" stroke-linejoin="round"/>
<path d="M178.645 168.168C178.645 168.168 176.109 162.837 173.138 163.449C170.167 164.061 171.659 168.432 178.645 168.168Z" stroke="#74B31B" stroke-linecap="round" stroke-linejoin="round"/>
<path d="M178.867 168.168C178.867 168.168 181.403 162.837 184.374 163.449C187.345 164.061 185.862 168.432 178.867 168.168Z" stroke="#74B31B" stroke-linecap="round" stroke-linejoin="round"/>
<path d="M185.477 156.89C185.649 158.114 185.037 159.425 183.201 160.214C181.366 161.002 180.42 158.823 178.483 160.825C176.545 162.828 178.867 168.168 178.867 168.168C178.867 168.168 185.213 167.297 185.477 169.744C185.742 172.192 183.725 173.327 184.342 174.815C184.958 176.303 186.877 175.251 187.049 173.592" stroke="#74B31B" stroke-linecap="round" stroke-linejoin="round"/>
<path d="M27.6905 185.947C34.2673 184.889 38.7411 178.7 37.6829 172.123C36.6248 165.546 30.4354 161.072 23.8586 162.13C17.2818 163.189 12.808 169.378 13.8661 175.955C14.9243 182.532 21.1137 187.005 27.6905 185.947Z" stroke="#74B31B" stroke-linecap="round" stroke-linejoin="round"/>
<path d="M25.7617 167.259V180.832" stroke="#74B31B" stroke-width="4" stroke-linecap="round" stroke-linejoin="round"/>
<path d="M32.5483 174.046H18.9756" stroke="#74B31B" stroke-width="4" stroke-linecap="round" stroke-linejoin="round"/>
<path d="M138.594 24.7413V165.41C138.594 167.264 137.858 169.042 136.547 170.353C135.236 171.664 133.458 172.4 131.604 172.4H70.8233C68.9694 172.4 67.1914 171.664 65.8804 170.353C64.5695 169.042 63.833 167.264 63.833 165.41V24.7413C63.833 22.8882 64.5688 21.1109 65.8788 19.8001C67.1887 18.4893 68.9655 17.7522 70.8187 17.751H96.9072L96.9304 17.8345C97.5793 20.1522 99.0766 21.6958 100.736 21.6958H101.663C103.327 21.6958 104.825 20.1707 105.474 17.8345L105.497 17.751H131.581C132.501 17.748 133.412 17.9265 134.263 18.2765C135.114 18.6264 135.887 19.1408 136.539 19.7902C137.19 20.4396 137.707 21.2113 138.06 22.0609C138.413 22.9105 138.594 23.8214 138.594 24.7413Z" fill="white" stroke="#74B31B" stroke-linecap="round" stroke-linejoin="round"/>
<path d="M143.346 58.3393V44.2891H142.075V26.3034C142.075 23.3627 140.907 20.5424 138.828 18.463C136.748 16.3835 133.928 15.2153 130.987 15.2153H71.4353C68.4945 15.2153 65.6742 16.3835 63.5948 18.463C61.5154 20.5424 60.3472 23.3627 60.3472 26.3034V169.229C60.3472 172.17 61.5154 174.99 63.5948 177.07C65.6742 179.149 68.4945 180.317 71.4353 180.317H130.987C133.928 180.317 136.748 179.149 138.828 177.07C140.907 174.99 142.075 172.17 142.075 169.229V70.3127H143.346V62.0106H142.075V58.3393H143.346ZM138.594 161.312C138.593 164.252 137.424 167.072 135.345 169.151C133.266 171.23 130.446 172.399 127.506 172.4H74.9211C71.9804 172.4 69.1601 171.232 67.0807 169.152C65.0013 167.073 63.8331 164.253 63.8331 161.312V28.839C63.8331 25.8983 65.0013 23.078 67.0807 20.9986C69.1601 18.9191 71.9804 17.7509 74.9211 17.7509H96.9072L96.9304 17.8344C97.5794 20.1521 99.0767 21.6957 100.736 21.6957H101.663C103.327 21.6957 104.825 20.1707 105.474 17.8344L105.497 17.7509H127.483C128.941 17.7485 130.385 18.0335 131.733 18.5896C133.08 19.1456 134.305 19.9619 135.337 20.9917C136.369 22.0215 137.188 23.2447 137.747 24.5912C138.306 25.9377 138.594 27.3811 138.594 28.839V161.312Z" fill="#74B31B" stroke="#74B31B" stroke-linecap="round" stroke-linejoin="round"/>
<path d="M130.102 16.745H72.3254C70.921 16.745 69.5304 17.0216 68.233 17.559C66.9355 18.0965 65.7566 18.8842 64.7636 19.8772C63.7705 20.8702 62.9828 22.0492 62.4454 23.3466C61.908 24.6441 61.6313 26.0347 61.6313 27.4391V168.098C61.6313 170.935 62.758 173.655 64.7636 175.66C66.7691 177.666 69.4892 178.792 72.3254 178.792H130.102C131.506 178.792 132.897 178.516 134.194 177.978C135.491 177.441 136.67 176.653 137.662 175.66C138.655 174.667 139.442 173.488 139.979 172.19C140.516 170.893 140.792 169.502 140.792 168.098V27.4391C140.792 26.0349 140.516 24.6444 139.979 23.347C139.442 22.0495 138.655 20.8706 137.662 19.8775C136.67 18.8844 135.491 18.0966 134.194 17.5591C132.897 17.0216 131.506 16.745 130.102 16.745ZM138.594 161.706C138.594 164.542 137.468 167.262 135.462 169.268C133.457 171.273 130.737 172.4 127.9 172.4H74.5273C71.691 172.4 68.9709 171.273 66.9654 169.268C64.9599 167.262 63.8332 164.542 63.8332 161.706V28.4403C63.8332 25.6053 64.9594 22.8864 66.9641 20.8818C68.9687 18.8771 71.6876 17.7509 74.5226 17.7509H96.9074L96.9306 17.8343C97.5795 20.1521 99.0768 21.6957 100.736 21.6957H101.663C103.328 21.6957 104.825 20.1706 105.474 17.8343L105.497 17.7509H127.877C129.283 17.7478 130.676 18.0222 131.977 18.5583C133.277 19.0943 134.458 19.8816 135.454 20.8749C136.449 21.8682 137.239 23.0482 137.778 24.3472C138.317 25.6461 138.594 27.0386 138.594 28.445V161.706Z" fill="#74B31B" stroke="#74B31B" stroke-linecap="round" stroke-linejoin="round"/>
<path d="M102.025 18.2839C102.026 18.0773 101.965 17.875 101.851 17.7027C101.737 17.5305 101.574 17.3961 101.383 17.3166C101.192 17.2371 100.982 17.216 100.78 17.2561C100.577 17.2962 100.391 17.3957 100.244 17.5418C100.098 17.688 99.9989 17.8742 99.9588 18.077C99.9187 18.2797 99.9397 18.4898 100.019 18.6806C100.099 18.8714 100.233 19.0342 100.405 19.1484C100.578 19.2627 100.78 19.3232 100.987 19.3223C101.262 19.3223 101.526 19.2129 101.721 19.0182C101.916 18.8234 102.025 18.5593 102.025 18.2839Z" fill="white"/>
<path d="M70.4757 22.2844C70.4757 23.3367 69.2937 23.7168 69.289 24.5187V24.5744H70.4386V24.9313H68.9043V24.6022C68.9043 23.4757 70.0863 23.2532 70.0863 22.2844C70.0863 21.9275 69.9705 21.7374 69.6784 21.7374C69.3864 21.7374 69.2705 21.9414 69.2705 22.252V22.5626H68.9043V22.2844C68.9043 21.7513 69.15 21.399 69.6877 21.399C70.2254 21.399 70.4757 21.7374 70.4757 22.2844Z" fill="#74B31B"/>
<path d="M72.39 22.2843V22.3724C72.408 22.5224 72.3759 22.6741 72.2988 22.804C72.2217 22.934 72.1038 23.0348 71.9636 23.0909C72.1046 23.1487 72.2227 23.2512 72.2998 23.3827C72.3768 23.5142 72.4085 23.6674 72.39 23.8187V24.0875C72.39 24.6206 72.1397 24.9683 71.602 24.9683C71.0643 24.9683 70.8186 24.6206 70.8186 24.0875V23.8465H71.1802V24.1107C71.1802 24.4259 71.31 24.616 71.5927 24.616C71.8755 24.616 72.0006 24.4305 72.0006 24.0782V23.8047C72.0006 23.4617 71.8569 23.2995 71.5603 23.2856H71.3517V22.9379H71.5649C71.624 22.9382 71.6825 22.9261 71.7366 22.9023C71.7907 22.8786 71.8392 22.8437 71.879 22.8C71.9187 22.7563 71.9489 22.7047 71.9674 22.6486C71.986 22.5925 71.9926 22.5332 71.9867 22.4744V22.2843C71.9867 21.9274 71.8616 21.742 71.5788 21.742C71.296 21.742 71.1663 21.9366 71.1663 22.2519V22.4326H70.8047V22.2843C70.8047 21.7512 71.055 21.4082 71.5881 21.4082C72.1212 21.4082 72.39 21.7327 72.39 22.2843Z" fill="#74B31B"/>
<path d="M73.1409 22.5299V22.9935H72.77V22.5299H73.1409ZM73.1409 24.4305V24.9172H72.77V24.4305H73.1409Z" fill="#74B31B"/>
<path d="M73.9338 22.8452C73.9844 22.7532 74.06 22.6774 74.1519 22.6265C74.2437 22.5756 74.3481 22.5518 74.453 22.5578C74.9165 22.5578 75.0973 22.8869 75.0973 23.3829V24.069C75.0973 24.6021 74.847 24.9497 74.3093 24.9497C73.7716 24.9497 73.5259 24.6021 73.5259 24.069V23.8326H73.8828V24.0922C73.8828 24.4074 74.0126 24.5974 74.2907 24.5974C74.5689 24.5974 74.7033 24.4074 74.7033 24.0922V23.4154C74.7033 23.1002 74.5735 22.9101 74.2907 22.9101C74.2401 22.9083 74.1895 22.9166 74.1421 22.9345C74.0946 22.9525 74.0513 22.9798 74.0146 23.0148C73.9779 23.0498 73.9485 23.0918 73.9283 23.1383C73.908 23.1848 73.8973 23.2349 73.8967 23.2856V23.3644H73.5352L73.6279 21.4221H75.0185V21.7698H73.9894L73.9338 22.8452Z" fill="#74B31B"/>
<path d="M77.0394 22.2843V22.3492H76.6639V22.2379C76.6639 21.9227 76.5342 21.7373 76.2514 21.7373C75.9686 21.7373 75.8249 21.9274 75.8249 22.3028V23.0862C75.8652 22.9704 75.9423 22.871 76.0444 22.8032C76.1466 22.7354 76.2681 22.7029 76.3905 22.7108C76.854 22.7108 77.0394 23.0352 77.0394 23.5405V24.069C77.0394 24.602 76.7706 24.9497 76.2375 24.9497C75.7044 24.9497 75.4355 24.602 75.4355 24.069V22.2843C75.4355 21.7327 75.6859 21.3896 76.2375 21.3896C76.7891 21.3896 77.0394 21.728 77.0394 22.2843ZM75.8388 23.5915V24.0921C75.8388 24.4074 75.9686 24.5974 76.2514 24.5974C76.5342 24.5974 76.6686 24.4074 76.6686 24.0921V23.5683C76.6686 23.2531 76.5342 23.0631 76.2514 23.0631C75.9686 23.0631 75.8388 23.2531 75.8388 23.5683V23.5915Z" fill="#74B31B"/>
<path d="M115.18 22.4141H114.193V24.8801H115.18V22.4141Z" fill="#74B31B"/>
<path d="M116.497 21.9229H115.509V24.8849H116.497V21.9229Z" fill="#74B31B"/>
<path d="M117.809 21.5707H116.821V24.8804H117.809V21.5707Z" fill="#74B31B"/>
<path d="M119.125 20.9586H118.138V24.8802H119.125V20.9586Z" fill="#74B31B"/>
<path d="M131.33 24.8109H125.411V21.1952H131.33V24.8109ZM125.74 24.4864H131.001V21.5243H125.74V24.4864Z" fill="#74B31B"/>
<path d="M129.36 21.8812H126.236V24.1248H129.36V21.8812Z" fill="#74B31B"/>
<path d="M131.873 22.5764H131.126V23.4293H131.873V22.5764Z" fill="#74B31B"/>
<path d="M123.242 24.0275C123.202 24.0276 123.164 24.0164 123.13 23.995C121.925 23.2812 121.128 23.944 121.095 23.995C121.075 24.0156 121.051 24.032 121.024 24.0432C120.998 24.0543 120.969 24.0601 120.94 24.0601C120.911 24.0601 120.883 24.0543 120.856 24.0432C120.829 24.032 120.805 24.0156 120.785 23.995C120.744 23.9535 120.722 23.8978 120.722 23.8397C120.722 23.7817 120.744 23.726 120.785 23.6844C120.831 23.6474 121.846 22.7573 123.339 23.6844C123.364 23.6992 123.385 23.7188 123.403 23.742C123.42 23.7652 123.432 23.7916 123.439 23.8196C123.446 23.8476 123.447 23.8767 123.443 23.9053C123.438 23.9338 123.428 23.9612 123.413 23.9858C123.389 24.0038 123.361 24.0168 123.332 24.024C123.302 24.0311 123.272 24.0323 123.242 24.0275Z" fill="#74B31B"/>
<path d="M123.686 23.2811C123.648 23.2807 123.609 23.2712 123.575 23.2533C121.832 22.2149 120.664 23.2208 120.65 23.2533C120.605 23.2864 120.549 23.3015 120.494 23.2955C120.438 23.2895 120.387 23.2628 120.35 23.2208C120.314 23.1788 120.294 23.1245 120.295 23.0687C120.297 23.0129 120.319 22.9596 120.358 22.9195C120.358 22.9195 121.786 21.6957 123.802 22.9195C123.827 22.9343 123.849 22.9538 123.866 22.977C123.883 23.0002 123.895 23.0266 123.902 23.0546C123.909 23.0827 123.91 23.1118 123.906 23.1403C123.902 23.1689 123.892 23.1962 123.876 23.2208C123.852 23.2453 123.822 23.2635 123.789 23.274C123.756 23.2844 123.721 23.2869 123.686 23.2811Z" fill="#74B31B"/>
<path d="M124.094 22.4234C124.053 22.4242 124.013 22.4129 123.978 22.3909C121.772 21.0791 120.307 22.3167 120.247 22.3909C120.225 22.4101 120.2 22.4247 120.172 22.4339C120.145 22.4432 120.116 22.4468 120.087 22.4446C120.058 22.4425 120.029 22.4346 120.004 22.4214C119.978 22.4082 119.955 22.3899 119.936 22.3677C119.916 22.3475 119.899 22.3233 119.888 22.2966C119.877 22.27 119.871 22.2414 119.871 22.2124C119.871 22.1835 119.877 22.1549 119.888 22.1283C119.899 22.1016 119.916 22.0774 119.936 22.0572C119.936 22.0572 121.698 20.5553 124.187 22.0572C124.237 22.088 124.273 22.1371 124.288 22.1942C124.303 22.2513 124.295 22.3118 124.266 22.3631C124.243 22.3847 124.216 22.4012 124.186 22.4115C124.157 22.4219 124.125 22.426 124.094 22.4234Z" fill="#74B31B"/>
<path d="M122.578 24.3982C122.578 24.5082 122.546 24.6158 122.485 24.7072C122.423 24.7987 122.337 24.87 122.235 24.9121C122.133 24.9542 122.021 24.9652 121.914 24.9438C121.806 24.9223 121.707 24.8693 121.629 24.7915C121.551 24.7137 121.498 24.6146 121.477 24.5067C121.455 24.3988 121.466 24.287 121.508 24.1853C121.55 24.0837 121.622 23.9968 121.713 23.9357C121.805 23.8746 121.912 23.8419 122.022 23.8419C122.095 23.8413 122.168 23.8553 122.236 23.883C122.303 23.9108 122.365 23.9517 122.417 24.0035C122.469 24.0553 122.51 24.1168 122.537 24.1846C122.565 24.2524 122.579 24.325 122.578 24.3982Z" fill="#74B31B"/>
<path d="M27.7505 43.3807H33.1555" stroke="#74B31B" stroke-linecap="round" stroke-linejoin="round"/>
<path d="M69.6509 43.3807H75.0559" stroke="#74B31B" stroke-linecap="round" stroke-linejoin="round"/>
<path d="M33.1553 29.1913L36.1962 31.5554" stroke="#74B31B" stroke-linecap="round" stroke-linejoin="round"/>
<path d="M68.974 29.1913L65.9331 31.5554" stroke="#74B31B" stroke-linecap="round" stroke-linejoin="round"/>
<path d="M45.3188 23.448L45.6572 28.5146" stroke="#74B31B" stroke-linecap="round" stroke-linejoin="round"/>
<path d="M57.1489 24.1201L56.4722 28.5146" stroke="#74B31B" stroke-linecap="round" stroke-linejoin="round"/>
<path d="M64.8159 37.0532H35.6401V62.2286H64.8159V37.0532Z" fill="white" stroke="#74B31B" stroke-linecap="round" stroke-linejoin="round"/>
<path d="M46.473 37.0532H40.9707V62.2286H46.473V37.0532Z" fill="#74B31B" stroke="#74B31B" stroke-linecap="round" stroke-linejoin="round"/>
<path d="M64.8157 37.0532H52.0264V62.2286H64.8157V37.0532Z" fill="white" stroke="#74B31B" stroke-linecap="round" stroke-linejoin="round"/>
<path d="M48.1699 34.9994L43.8913 33.1452C43.7864 33.1363 43.681 33.1363 43.5761 33.1452L43.5066 33.1082H39.2002L42.5563 34.6842C42.5733 34.92 42.6089 35.154 42.6629 35.3842C42.7753 35.7359 42.9736 36.054 43.2399 36.3098C43.5062 36.5656 43.832 36.7509 44.188 36.849L44.2158 36.9834H44.6793L52.1286 37.0854C52.1286 37.0854 50.2002 36.0239 48.1699 34.9994Z" fill="#74B31B" stroke="#74B31B" stroke-linecap="round" stroke-linejoin="round"/>
<path d="M47.8269 37.0531C47.8269 37.0531 43.1915 34.5546 40.679 33.456C38.1666 32.3574 38.0785 34.0539 38.3613 35.3519C38.644 36.6498 40.3592 36.9511 40.3592 36.9511L47.8269 37.0531Z" fill="#74B31B" stroke="#74B31B" stroke-linecap="round" stroke-linejoin="round"/>
<path d="M48.9298 35.2315H47.2935C47.0601 35.2308 46.829 35.2763 46.6133 35.3654C46.3977 35.4544 46.2017 35.5851 46.0367 35.7501C45.8717 35.9151 45.741 36.111 45.652 36.3267C45.563 36.5424 45.5175 36.7735 45.5181 37.0068H50.7052C50.7052 36.536 50.5181 36.0844 50.1852 35.7515C49.8522 35.4185 49.4007 35.2315 48.9298 35.2315Z" fill="#74B31B" stroke="#74B31B" stroke-linecap="round" stroke-linejoin="round"/>
<path d="M59.156 33.127H55.3734L54.8821 34.9812C52.8517 36.0056 50.9419 37.0347 50.9419 37.0347L58.3911 36.9327H58.8547L58.8779 36.7983C59.2347 36.7008 59.5615 36.5158 59.8286 36.26C60.0958 36.0042 60.2948 35.6857 60.4076 35.3335C60.6347 34.2766 60.6069 32.9462 59.156 33.127Z" fill="#74B31B" stroke="#74B31B" stroke-linecap="round" stroke-linejoin="round"/>
<path d="M46.4731 37.0531C46.4731 37.0531 51.1086 34.5546 53.6257 33.456C56.1428 32.3574 56.2216 34.0539 55.9203 35.3519C55.619 36.6498 53.9224 36.9511 53.9224 36.9511L46.4731 37.0531Z" fill="#74B31B" stroke="#74B31B" stroke-linecap="round" stroke-linejoin="round"/>
<path d="M36.5903 64.0039C36.5903 64.0039 34.152 62.3815 34.6851 61.867C35.2182 61.3524 37.8372 62.4835 38.4352 63.2576C39.0332 64.0318 38.7319 64.5509 38.2359 64.5973C37.7399 64.6436 36.5903 64.0039 36.5903 64.0039Z" fill="white" stroke="#74B31B" stroke-linecap="round" stroke-linejoin="round"/>
<path d="M38.653 62.1126C38.653 62.1126 34.8751 60.1518 35.7836 61.9642C36.6922 63.7767 38.9543 65.4409 39.8629 65.8951C40.7714 66.3494 45.7592 66.1964 45.7592 66.1964C45.7592 66.1964 44.8321 64.5323 43.9421 64.078C43.0521 63.6237 38.653 62.1126 38.653 62.1126Z" fill="white" stroke="#74B31B" stroke-linecap="round" stroke-linejoin="round"/>
<path d="M42.2782 62.1127C42.2782 62.1127 37.2905 59.3963 37.1375 60.4532C36.9845 61.51 41.0684 64.9867 42.4266 65.5893C43.4923 65.9835 44.6186 66.189 45.7549 66.1965L42.2782 62.1127Z" fill="white" stroke="#74B31B" stroke-linecap="round" stroke-linejoin="round"/>
<path d="M61.923 66.7853C61.923 66.7853 60.1106 62.5531 58.7477 61.9505C57.3849 61.3479 45.1472 62.5531 45.1472 62.5531C45.1472 62.5531 39.2509 57.7183 39.7051 60.1334C40.1594 62.5485 43.9373 65.4271 44.9942 66.1595C46.0511 66.8919 53.9129 66.6231 53.9129 66.6231L56.3326 68.8898L61.923 66.7853Z" fill="white" stroke="#74B31B" stroke-linecap="round" stroke-linejoin="round"/>
<path d="M136.332 73.5808C136.049 74.1291 135.973 74.7611 136.119 75.3608C136.356 75.953 136.72 76.4862 137.185 76.923L137.542 79.1295L142.381 79.3427L140.388 71.9259L136.332 73.5808Z" fill="white" stroke="#74B31B" stroke-linecap="round" stroke-linejoin="round"/>
<path d="M133.045 59.832C133.045 59.832 135.062 72.9504 135.363 73.7384C135.664 74.5265 137.987 75.4536 138.798 75.0503C139.609 74.647 138.191 72.7325 138.191 72.7325L138.594 60.1194C138.594 60.1194 135.164 58.8122 133.045 59.832Z" fill="#74B31B" stroke="#74B31B" stroke-linecap="round" stroke-linejoin="round"/>
<path d="M138.696 63.9576C138.696 63.9576 135.869 63.7583 135.767 64.2635C135.665 64.7688 135.669 66.4793 136.175 66.6833C136.68 66.8872 140.11 67.1885 140.713 66.9846C140.915 66.8821 141.094 66.7401 141.239 66.5669C141.385 66.3937 141.494 66.1929 141.56 65.9765C141.626 65.7601 141.648 65.5326 141.625 65.3076C141.601 65.0826 141.532 64.8646 141.422 64.6668C140.815 63.7583 138.696 63.9576 138.696 63.9576Z" fill="white" stroke="#74B31B" stroke-linecap="round" stroke-linejoin="round"/>
<path d="M138.696 67.1884C138.696 67.1884 135.971 67.1884 136.073 67.7911C136.175 68.3937 135.869 69.7102 137 69.9141C138.342 70.0809 139.701 70.0465 141.033 69.8121C141.259 69.7701 141.469 69.6631 141.636 69.5043C141.803 69.3454 141.921 69.1415 141.974 68.9172C142.027 68.6929 142.015 68.458 141.937 68.2408C141.86 68.0236 141.721 67.8336 141.538 67.6937C140.713 66.9845 138.696 67.1884 138.696 67.1884Z" fill="white" stroke="#74B31B" stroke-linecap="round" stroke-linejoin="round"/>
<path d="M134.316 67.9626C134.316 67.9626 133.968 65.4223 133.147 65.4919C132.536 65.5429 131.075 66.0064 131.21 67.1236C131.441 68.4572 131.872 69.7481 132.489 70.9525C132.596 71.157 132.76 71.3262 132.961 71.4394C133.162 71.5526 133.391 71.6051 133.622 71.5903C133.852 71.5756 134.073 71.4944 134.258 71.3564C134.443 71.2185 134.584 71.0299 134.663 70.8134C135.104 69.8353 134.316 67.9626 134.316 67.9626Z" fill="white" stroke="#74B31B" stroke-linecap="round" stroke-linejoin="round"/>
<path d="M138.849 69.9095C138.849 69.9095 136.383 69.9095 136.476 70.4935C136.568 71.0776 136.29 72.3477 137.296 72.5332C138.511 72.6921 139.744 72.6593 140.949 72.4358C141.16 72.3845 141.353 72.2753 141.505 72.1205C141.658 71.9657 141.764 71.7715 141.812 71.5596C141.86 71.3476 141.849 71.1265 141.778 70.921C141.707 70.7155 141.581 70.5337 141.412 70.3962C140.675 69.7194 138.849 69.9095 138.849 69.9095Z" fill="white" stroke="#74B31B" stroke-linecap="round" stroke-linejoin="round"/>
<path d="M138.965 72.1252C138.965 72.1252 136.902 72.1252 136.981 72.5887C137.06 73.0523 136.828 74.1323 137.667 74.2946C138.683 74.4316 139.715 74.405 140.722 74.2158C140.898 74.1715 141.058 74.0793 141.184 73.9493C141.311 73.8194 141.398 73.6569 141.438 73.48C141.477 73.3031 141.467 73.1187 141.408 72.9474C141.348 72.7761 141.243 72.6246 141.102 72.5099C140.495 71.9629 138.965 72.1252 138.965 72.1252Z" fill="white" stroke="#74B31B" stroke-linecap="round" stroke-linejoin="round"/>
<path d="M132.485 46.5467C131.177 46.5514 129.898 46.9275 128.796 47.6311C127.693 48.3347 126.814 49.3369 126.259 50.521C125.705 51.7051 125.498 53.0225 125.663 54.3196C125.828 55.6168 126.358 56.8404 127.191 57.848C128.456 59.3731 130.529 60.467 132.503 60.3419C138.557 59.971 154.429 68.4725 154.429 68.4725V38.416C154.429 38.416 138.78 46.6718 132.485 46.5467Z" fill="white" stroke="#74B31B" stroke-linecap="round" stroke-linejoin="round"/>
<path d="M131.252 53.6899C131.252 52.1381 131.67 50.6151 132.463 49.2812C133.256 47.9474 134.394 46.8521 135.757 46.1108C134.688 46.3855 133.589 46.5318 132.485 46.5466C131.177 46.5513 129.898 46.9274 128.796 47.631C127.693 48.3346 126.814 49.3368 126.259 50.5209C125.705 51.7051 125.498 53.0224 125.663 54.3195C125.828 55.6167 126.358 56.8403 127.191 57.8479C128.456 59.373 130.529 60.4669 132.503 60.3418C133.205 60.3144 133.907 60.3625 134.598 60.4855C133.559 59.6833 132.717 58.6537 132.137 57.4758C131.557 56.2979 131.254 55.0029 131.252 53.6899Z" fill="#74B31B" stroke="#74B31B" stroke-linecap="round" stroke-linejoin="round"/>
<path d="M169.005 56.9911C170.968 48.9267 166.022 40.798 157.957 38.835C149.893 36.8721 141.764 41.8184 139.801 49.8828C137.838 57.9472 142.785 66.076 150.849 68.0389C158.913 70.0018 167.042 65.0556 169.005 56.9911Z" fill="white" stroke="#74B31B" stroke-linecap="round" stroke-linejoin="round"/>
<path d="M167.218 53.4442C167.219 55.9785 166.468 58.4561 165.061 60.5637C163.654 62.6713 161.653 64.3142 159.312 65.2847C156.971 66.2552 154.395 66.5095 151.909 66.0157C149.423 65.5219 147.14 64.3019 145.348 62.5103C143.555 60.7186 142.335 58.4356 141.84 55.9501C141.345 53.4646 141.598 50.8882 142.568 48.5468C143.538 46.2053 145.18 44.204 147.287 42.796C149.394 41.3879 151.871 40.6364 154.406 40.6364C157.803 40.6376 161.06 41.9872 163.463 44.3888C165.865 46.7903 167.216 50.0473 167.218 53.4442Z" fill="#EAF4DD" stroke="#74B31B" stroke-linecap="round" stroke-linejoin="round"/>
<path d="M154.406 50.3154V56.5872L144.551 61.6352C143.05 59.8221 142.076 57.6311 141.737 55.3018C141.398 52.9725 141.706 50.5947 142.627 48.4287L154.406 50.3154Z" fill="white" stroke="#74B31B" stroke-linecap="round" stroke-linejoin="round"/>
<path d="M157.535 53.4441C157.535 54.0632 157.351 54.6683 157.007 55.183C156.663 55.6976 156.174 56.0987 155.602 56.3354C155.03 56.572 154.401 56.6337 153.794 56.5126C153.187 56.3915 152.629 56.0931 152.192 55.655C151.754 55.2169 151.457 54.659 151.336 54.0517C151.216 53.4445 151.279 52.8152 151.516 52.2435C151.754 51.6719 152.156 51.1835 152.671 50.8403C153.186 50.497 153.791 50.3143 154.41 50.3152C155.239 50.3164 156.034 50.6466 156.62 51.2333C157.206 51.8199 157.535 52.6151 157.535 53.4441Z" fill="white" stroke="#74B31B" stroke-linecap="round" stroke-linejoin="round"/>
<path d="M136.527 79.3287L136.026 77.2288L142.525 76.4269L142.382 79.3426L136.527 79.3287Z" fill="white" stroke="#74B31B" stroke-linecap="round" stroke-linejoin="round"/>
<path d="M55.9435 69.7286L54.4463 67.3274L61.3439 63.8276L61.9233 66.7712L55.9435 69.7286Z" fill="white" stroke="#74B31B" stroke-linecap="round" stroke-linejoin="round"/>
<path d="M97.8716 66.2568C97.8716 66.2568 86.7835 65.0237 85.8193 65.5151C84.8551 66.0065 70.7911 82.6386 70.7911 82.6386L62.1505 65.3946L54.8774 68.5931C54.8774 68.5931 63.9908 99.6508 65.4695 100.003C66.9483 100.355 80.9891 91.0149 80.9891 91.0149L80.1269 103.331C80.1269 103.331 82.7135 113.678 94.1725 115.648C105.631 117.618 112.399 108.75 113.878 105.793C114.979 103.436 115.925 101.009 116.71 98.529L122.009 82.8843C122.009 82.8843 136.926 95.0617 140.245 96.5543C143.564 98.047 146.646 99.3912 147.017 98.6496C147.388 97.9079 143.693 78.2024 143.693 78.2024L135.813 78.5733L136.184 81.6512C136.184 81.6512 125.958 68.2083 125.096 66.8687C124.234 65.529 121.647 65.7608 118.569 64.8986C115.491 64.0364 97.8716 66.2568 97.8716 66.2568Z" fill="#74B31B" stroke="#74B31B" stroke-linecap="round" stroke-linejoin="round"/>
<path d="M80.9937 91.0148L89.2495 84.8542" stroke="#74B31B" stroke-linecap="round" stroke-linejoin="round"/>
<path d="M86.292 87.1953L90.4778 86.4536" stroke="#74B31B" stroke-linecap="round" stroke-linejoin="round"/>
<path d="M122.013 82.884L124.845 72.9038" stroke="#74B31B" stroke-linecap="round" stroke-linejoin="round"/>
<path d="M123.121 79.6811L126.199 75.3701" stroke="#74B31B" stroke-linecap="round" stroke-linejoin="round"/>
<path d="M136.545 88.8223L136.671 91.2605" stroke="#74B31B" stroke-linecap="round" stroke-linejoin="round"/>
<path d="M136.179 81.6511L136.402 86.0409" stroke="#74B31B" stroke-linecap="round" stroke-linejoin="round"/>
<path d="M70.7725 82.6387L73.3591 88.0576" stroke="#74B31B" stroke-linecap="round" stroke-linejoin="round"/>
<path d="M102.057 64.8986L96.6382 65.8859C96.6382 65.8859 94.6681 67.4852 93.5603 71.1796C92.8874 73.4365 92.3929 75.7428 92.0815 78.0772L96.7634 78.3276L93.055 82.0359C93.055 82.0359 94.1675 83.6352 96.5038 87.084C98.3499 89.6841 100.363 92.1616 102.53 94.5008L95.6694 103.331C95.6694 103.331 104.046 101.477 109.219 95.8173C114.392 90.1573 117.456 81.6512 117.456 81.6512L113.391 78.4481L117.702 77.5859C117.702 77.5859 118.564 70.5678 113.993 65.9972C109.423 61.4266 102.057 64.8986 102.057 64.8986Z" fill="#74B31B" stroke="#74B31B" stroke-linecap="round" stroke-linejoin="round"/>
<path d="M114.253 67.8559C114.253 67.8559 112.816 70.7021 112.529 75.9866C112.306 80.1122 110.141 85.3688 108.232 89.0865C106.716 92.0439 105.358 94.0279 105.26 93.722C105.26 93.722 104.463 92.4426 103.188 88.7156C102.878 87.8256 102.544 86.7873 102.182 85.5867C100.328 79.4261 98.7335 69.4506 99.4705 67.4805C99.8164 66.5093 100.228 65.563 100.704 64.6482C106.618 72.6583 114.253 67.8559 114.253 67.8559Z" fill="white" stroke="#74B31B" stroke-linecap="round" stroke-linejoin="round"/>
<path d="M106.739 84.7338L108.232 89.0865C106.716 92.0439 105.358 94.0279 105.261 93.722C105.261 93.722 104.463 92.4426 103.188 88.7156L105.261 84.9748L103.202 81.1227L105.631 78.6891L108.955 82.0174L106.739 84.7338Z" fill="#74B31B" stroke="#74B31B" stroke-linecap="round" stroke-linejoin="round"/>
<path d="M101.566 82.8842L105.631 78.6937L110.582 83.3663" stroke="#74B31B" stroke-linecap="round" stroke-linejoin="round"/>
<path d="M100.704 64.6527C100.842 67.1343 101.34 69.5827 102.182 71.9212C103.115 74.2827 104.27 76.5503 105.631 78.6936L111.43 70.4424C111.43 70.4424 105.14 71.059 100.704 64.6527Z" stroke="#74B31B" stroke-linecap="round" stroke-linejoin="round"/>
<path d="M118.323 51.5992C118.323 51.5992 120.085 51.3257 120.085 53.7315C120.085 56.1374 119.065 59.0994 119.065 59.0994L118.323 51.5992Z" fill="white" stroke="#74B31B" stroke-linecap="round" stroke-linejoin="round"/>
<path d="M117.702 42.7269C117.702 42.7269 118.935 53.9356 119.056 57.2638C119.176 60.5921 118.81 63.5449 117.702 65.0236C116.594 66.5024 112.139 72.4126 109.822 72.6583C107.504 72.904 104.894 71.6756 103.911 70.8041C102.929 69.9326 98.2422 62.5483 98.2422 62.5483C98.2422 62.5483 94.6728 62.3026 93.8106 57.6208C92.9484 52.9389 97.7508 54.0514 97.7508 54.0514C97.7508 54.0514 95.1642 49.9861 94.9185 46.046C94.6728 42.1058 93.9312 40.6224 104.528 40.3768C115.125 40.1311 117.702 42.7269 117.702 42.7269Z" fill="white" stroke="#74B31B" stroke-linecap="round" stroke-linejoin="round"/>
<path d="M112.158 50.6119L115.115 60.8332L110.559 59.4796" stroke="#74B31B" stroke-linecap="round" stroke-linejoin="round"/>
<path d="M106.002 58.2466L102.428 58.9883" stroke="#74B31B" stroke-linecap="round" stroke-linejoin="round"/>
<path d="M104.278 58.863C104.621 59.9091 105.254 60.8357 106.105 61.5344C106.955 62.2331 107.988 62.6748 109.08 62.8078C113.02 63.4197 114.99 62.6827 114.99 62.6827" stroke="#74B31B" stroke-linecap="round" stroke-linejoin="round"/>
<path d="M105.26 60.8331C105.26 60.8331 105.14 66.9937 107.356 67.2394C109.571 67.4851 109.08 62.8078 109.08 62.8078C107.681 62.4286 106.379 61.7554 105.26 60.8331Z" fill="#74B31B" stroke="#74B31B" stroke-linecap="round" stroke-linejoin="round"/>
<path d="M105.715 65.0933C106.016 66.215 106.521 67.1468 107.356 67.2395C107.566 67.2691 107.78 67.2417 107.976 67.1602C108.171 67.0786 108.341 66.9459 108.468 66.7759C108.037 66.0204 106.549 65.3946 105.715 65.0933Z" fill="white" stroke="#74B31B" stroke-linecap="round" stroke-linejoin="round"/>
<path d="M106.795 53.4442C106.795 54.1256 106.494 54.6773 106.118 54.6773C105.743 54.6773 105.441 54.1256 105.441 53.4442C105.441 52.7628 105.743 52.2112 106.118 52.2112C106.494 52.2112 106.795 52.7628 106.795 53.4442Z" fill="#74B31B"/>
<path d="M115.055 52.3363C115.055 53.0177 114.749 53.5694 114.374 53.5694C113.998 53.5694 113.697 53.0177 113.697 52.3363C113.697 51.6549 114.003 51.1033 114.374 51.1033C114.744 51.1033 115.055 51.6549 115.055 52.3363Z" fill="#74B31B"/>
<path d="M103.907 51.3489C104.482 50.6948 105.212 50.1946 106.029 49.8935C106.847 49.5924 107.726 49.4999 108.589 49.6245" stroke="#74B31B" stroke-linecap="round" stroke-linejoin="round"/>
<path d="M112.529 49.1332C112.529 49.1332 114.128 46.1758 116.701 47.6545" stroke="#74B31B" stroke-linecap="round" stroke-linejoin="round"/>
<path d="M104.644 42.9726C104.644 42.9726 100.829 42.3561 101.691 43.4686C102.553 44.5811 104.523 45.9301 103.545 46.7923C102.567 47.6545 100.097 49.11 100.222 49.8702C100.347 50.6304 100.588 53.6899 100.222 54.4316C99.8556 55.1732 98.9887 55.2937 98.1265 55.1686C97.2643 55.0434 96.0313 52.8277 95.5399 52.2111C95.0486 51.5946 90.6124 47.1631 91.4746 43.5891C92.3368 40.0152 101.575 37.1829 101.575 37.1829C101.575 37.1829 107.476 30.5356 111.43 30.4105C115.384 30.2853 113.892 33.9844 113.748 34.3506C113.604 34.7168 119.413 33.9844 120.521 37.5537C121.628 41.1231 121.262 42.1104 116.21 43.4686C111.157 44.8268 104.644 42.9726 104.644 42.9726Z" fill="#74B31B" stroke="#74B31B" stroke-linecap="round" stroke-linejoin="round"/>
<path d="M182.344 38.0544L172.304 40.6503L174.38 41.6887L168.669 43.4223L180.263 41.8648L177.324 40.4788L182.344 38.0544Z" fill="#74B31B"/>
<path d="M184.402 62.4973L174.246 60.3975L175.655 62.2424L169.763 61.2782L180.856 64.9959L178.826 62.4556L184.402 62.4973Z" fill="#74B31B"/>
<path d="M173.481 79.2362L164.928 73.3676L165.512 75.6159L160.455 72.4452L169.244 80.1725L168.359 77.0436L173.481 79.2362Z" fill="#74B31B"/>
<path d="M80.9473 139.469V125.28H84.3451C85.1678 125.259 85.9884 125.374 86.7741 125.619C87.3982 125.818 87.9317 126.232 88.2806 126.787C88.6599 127.47 88.8398 128.246 88.7998 129.026C88.8041 129.544 88.7513 130.062 88.6422 130.569C88.5491 130.993 88.3657 131.391 88.1045 131.737C87.8298 132.074 87.4695 132.33 87.0615 132.479L89.0408 139.469H86.4496L84.7345 132.98H83.5431V139.469H80.9473ZM83.5431 131.339H84.3451C84.7566 131.358 85.1672 131.284 85.5457 131.121C85.8425 130.981 86.0722 130.729 86.1854 130.421C86.3277 130.026 86.3937 129.608 86.3801 129.188C86.4212 128.625 86.2833 128.064 85.986 127.584C85.7218 127.227 85.2212 127.046 84.4888 127.046H83.5617L83.5431 131.339Z" fill="#74B31B"/>
<path d="M90.7422 139.469V125.28H96.6988V127.102H93.352V131.181H95.9942V132.989H93.352V137.708H96.7498V139.493L90.7422 139.469Z" fill="#74B31B"/>
<path d="M98.2422 139.469V125.28H104.078V127.046H100.833V131.218H103.48V133.026H100.833V139.469H98.2422Z" fill="#74B31B"/>
<path d="M105.427 139.469V125.28H111.384V127.102H108.018V131.181H110.665V132.989H108.018V137.708H111.43V139.493L105.427 139.469Z" fill="#74B31B"/>
<path d="M112.927 139.469V125.28H116.325C117.146 125.259 117.965 125.374 118.749 125.619C119.375 125.817 119.911 126.231 120.261 126.787C120.638 127.47 120.817 128.246 120.775 129.026C120.782 129.545 120.729 130.063 120.618 130.569C120.526 130.993 120.344 131.391 120.084 131.737C119.81 132.074 119.449 132.33 119.041 132.479L121.021 139.469H118.425L116.71 132.98H115.518V139.469H112.927ZM115.518 131.339H116.325C116.737 131.358 117.147 131.283 117.526 131.121C117.82 130.978 118.049 130.727 118.165 130.421C118.304 130.025 118.368 129.607 118.355 129.188C118.397 128.625 118.259 128.064 117.961 127.584C117.702 127.227 117.201 127.046 116.464 127.046H115.537L115.518 131.339Z" fill="#74B31B"/>
<path d="M70.1465 157.715L72.9834 143.525H75.7647L78.6062 157.715H76.2004L75.6395 154.442H73.1688L72.5894 157.715H70.1465ZM73.4191 152.792H75.3429L74.3787 146.835L73.4191 152.792Z" fill="#74B31B"/>
<path d="M84.1968 157.715V143.525H90.0329V145.31H86.788V149.445H89.4302V151.253H86.788V157.715H84.1968Z" fill="#74B31B"/>
<path d="M91.3818 157.715V143.526H94.7796C95.6024 143.505 96.4229 143.619 97.2086 143.864C97.8328 144.064 98.3663 144.477 98.7152 145.032C99.0928 145.716 99.2711 146.491 99.2297 147.271C99.2354 147.79 99.1841 148.307 99.0767 148.815C98.9837 149.238 98.8002 149.637 98.539 149.983C98.2644 150.319 97.9041 150.576 97.496 150.724L99.4754 157.715H96.8842L95.169 151.225H93.9777V157.715H91.3818ZM93.9777 149.589H94.7796C95.1916 149.607 95.6022 149.531 95.9802 149.366C96.2761 149.225 96.5055 148.974 96.6199 148.666C96.7622 148.271 96.8283 147.853 96.8146 147.433C96.8529 146.871 96.7152 146.31 96.4206 145.829C96.1564 145.472 95.6558 145.292 94.9233 145.292H93.9963L93.9777 149.589Z" fill="#74B31B"/>
<path d="M101.232 157.715V143.525H103.791V157.715H101.232Z" fill="#74B31B"/>
<path d="M105.998 157.715V143.525H111.954V145.347H108.589V149.426H111.236V151.234H108.589V155.93H111.987V157.715H105.998Z" fill="#74B31B"/>
<path d="M113.493 157.715V143.525H115.301L118.75 151.614V143.525H120.891V157.715H119.172L115.704 149.236V157.715H113.493Z" fill="#74B31B"/>
<path d="M123.042 157.715V143.526H126.389C127.316 143.479 128.242 143.638 129.101 143.989C129.729 144.283 130.225 144.8 130.491 145.44C130.79 146.235 130.93 147.081 130.904 147.929V153.117C130.929 153.991 130.789 154.862 130.491 155.685C130.233 156.348 129.738 156.892 129.101 157.21C128.278 157.578 127.381 157.748 126.482 157.706L123.042 157.715ZM125.638 155.912H126.426C126.875 155.951 127.325 155.84 127.705 155.596C127.974 155.359 128.14 155.027 128.169 154.669C128.234 154.178 128.263 153.682 128.257 153.186V147.763C128.268 147.296 128.226 146.829 128.132 146.372C128.108 146.216 128.054 146.067 127.972 145.932C127.89 145.798 127.782 145.681 127.654 145.588C127.268 145.397 126.837 145.312 126.407 145.343H125.656L125.638 155.912Z" fill="#74B31B"/>
</svg>
