<svg width="33" height="35" viewBox="0 0 33 35" fill="none" xmlns="http://www.w3.org/2000/svg">
<path d="M28.5556 13.0556L16.5 1L1 16.5H4.44444V28.5556C4.44444 29.4691 4.80734 30.3452 5.4533 30.9911C6.09926 31.6371 6.97537 32 7.88889 32H18.2222" stroke="#68A118" stroke-width="2" stroke-linecap="round" stroke-linejoin="round"/>
<path d="M11.3335 32.0002V21.6669C11.3335 20.7533 11.6964 19.8772 12.3424 19.2313C12.9883 18.5853 13.8644 18.2224 14.7779 18.2224H18.2224C18.8889 18.2224 19.5106 18.4119 20.0376 18.7391M32.0002 21.6669H27.6946C27.0095 21.6669 26.3524 21.939 25.8679 22.4235C25.3834 22.908 25.1113 23.565 25.1113 24.2502C25.1113 24.9353 25.3834 25.5924 25.8679 26.0769C26.3524 26.5614 27.0095 26.8335 27.6946 26.8335H29.4168C30.102 26.8335 30.7591 27.1057 31.2435 27.5902C31.728 28.0746 32.0002 28.7317 32.0002 29.4169C32.0002 30.102 31.728 30.7591 31.2435 31.2435C30.7591 31.728 30.102 32.0002 29.4168 32.0002H25.1113M28.5557 32.0002V33.7224M28.5557 19.9446V21.6669" stroke="#68A118" stroke-width="2" stroke-linecap="round" stroke-linejoin="round"/>
</svg>
