<svg width="119" height="119" viewBox="0 0 119 119" fill="none" xmlns="http://www.w3.org/2000/svg">
<path d="M74.0839 84.4722C70.153 87.5324 64.9895 89.3889 59.3339 89.3889C53.6787 89.3889 48.515 87.5324 44.584 84.4722" stroke="#163300" stroke-width="7.375" stroke-linecap="round"/>
<path d="M11.895 65.8553C10.1593 54.5602 9.2915 48.9131 11.4269 43.9067C13.5622 38.9002 18.2997 35.4748 27.7746 28.6241L34.8539 23.5056C46.6406 14.9833 52.5342 10.7222 59.3339 10.7222C66.1342 10.7222 72.0273 14.9833 83.814 23.5056L90.8935 28.6241C100.368 35.4748 105.106 38.9002 107.241 43.9067C109.377 48.9131 108.509 54.5602 106.773 65.8553L105.293 75.4865C102.833 91.4977 101.602 99.5035 95.8598 104.28C90.1177 109.056 81.7229 109.056 64.933 109.056H53.7348C36.9452 109.056 28.5503 109.056 22.8081 104.28C17.0659 99.5035 15.8356 91.4977 13.3751 75.4865L11.895 65.8553Z" stroke="#163300" stroke-width="7.375" stroke-linejoin="round"/>
</svg>
