<svg width="28" height="29" viewBox="0 0 28 29" fill="none" xmlns="http://www.w3.org/2000/svg">
<g clip-path="url(#clip0_2215_4720)">
<path d="M18.3203 14.3223C17.8464 14.7142 17.4408 15.1517 17.1035 15.6348C16.347 15.252 15.5586 14.9694 14.7383 14.7871C13.918 14.6048 13.0794 14.5091 12.2227 14.5C11.2383 14.5 10.2995 14.623 9.40625 14.8691C8.51302 15.1152 7.67448 15.4616 6.89062 15.9082C6.10677 16.3548 5.40495 16.8971 4.78516 17.5352C4.16536 18.1732 3.62305 18.8796 3.1582 19.6543C2.69336 20.429 2.34701 21.2721 2.11914 22.1836C1.89128 23.0951 1.76823 24.0339 1.75 25H0C0 23.6693 0.195964 22.3887 0.587891 21.1582C0.979818 19.9277 1.54492 18.8021 2.2832 17.7812C3.02148 16.7604 3.90104 15.8672 4.92188 15.1016C5.94271 14.3359 7.10026 13.748 8.39453 13.3379C7.90234 13.0098 7.46484 12.6315 7.08203 12.2031C6.69922 11.7747 6.37109 11.3099 6.09766 10.8086C5.82422 10.3073 5.61458 9.77865 5.46875 9.22266C5.32292 8.66667 5.25 8.09245 5.25 7.5C5.25 6.53385 5.43229 5.62695 5.79688 4.7793C6.16146 3.93164 6.66276 3.19336 7.30078 2.56445C7.9388 1.93555 8.68164 1.43424 9.5293 1.06055C10.377 0.686849 11.2839 0.5 12.25 0.5C13.2161 0.5 14.123 0.682292 14.9707 1.04688C15.8184 1.41146 16.5566 1.91276 17.1855 2.55078C17.8145 3.1888 18.3158 3.93164 18.6895 4.7793C19.0632 5.62695 19.25 6.53385 19.25 7.5C19.25 8.09245 19.1771 8.66667 19.0312 9.22266C18.8854 9.77865 18.6803 10.3118 18.416 10.8223C18.1517 11.3327 17.819 11.7975 17.418 12.2168C17.0169 12.6361 16.5749 13.0143 16.0918 13.3516C16.4837 13.4792 16.862 13.6204 17.2266 13.7754C17.5911 13.9303 17.9557 14.1126 18.3203 14.3223ZM7 7.5C7 8.22917 7.13672 8.9082 7.41016 9.53711C7.68359 10.166 8.05729 10.722 8.53125 11.2051C9.00521 11.6882 9.5612 12.0664 10.1992 12.3398C10.8372 12.6133 11.5208 12.75 12.25 12.75C12.9701 12.75 13.6491 12.6133 14.2871 12.3398C14.9251 12.0664 15.4811 11.6927 15.9551 11.2188C16.429 10.7448 16.8073 10.1888 17.0898 9.55078C17.3724 8.91276 17.5091 8.22917 17.5 7.5C17.5 6.77995 17.3633 6.10091 17.0898 5.46289C16.8164 4.82487 16.4427 4.26888 15.9688 3.79492C15.4948 3.32096 14.9342 2.94271 14.2871 2.66016C13.64 2.3776 12.9609 2.24089 12.25 2.25C11.5208 2.25 10.8418 2.38672 10.2129 2.66016C9.58398 2.93359 9.028 3.30729 8.54492 3.78125C8.06185 4.25521 7.68359 4.81576 7.41016 5.46289C7.13672 6.11003 7 6.78906 7 7.5ZM21.9023 14.4863C22.5039 14.4863 23.0736 14.6003 23.6113 14.8281C24.1491 15.056 24.6139 15.3704 25.0059 15.7715C25.3978 16.1725 25.7122 16.6374 25.9492 17.166C26.1862 17.6947 26.3047 18.2643 26.3047 18.875C26.3047 19.4766 26.1908 20.0417 25.9629 20.5703C25.735 21.099 25.4206 21.5638 25.0195 21.9648C24.6185 22.3659 24.1491 22.6803 23.6113 22.9082C23.0736 23.1361 22.5039 23.2546 21.9023 23.2637C21.0182 23.2637 20.2116 23.0176 19.4824 22.5254L15.4902 26.5176C15.3171 26.6908 15.112 26.7773 14.875 26.7773C14.638 26.7773 14.4329 26.6908 14.2598 26.5176C14.0866 26.3444 14 26.1393 14 25.9023C14 25.6654 14.0866 25.4603 14.2598 25.2871L18.252 21.2949C17.7598 20.5658 17.5137 19.7591 17.5137 18.875C17.5137 18.2734 17.6276 17.7083 17.8555 17.1797C18.0833 16.651 18.3978 16.1862 18.7988 15.7852C19.1999 15.3841 19.6647 15.0697 20.1934 14.8418C20.722 14.6139 21.2917 14.4954 21.9023 14.4863ZM21.9023 21.5137C22.2669 21.5137 22.6087 21.4453 22.9277 21.3086C23.2467 21.1719 23.5247 20.985 23.7617 20.748C23.9987 20.5111 24.1901 20.2285 24.3359 19.9004C24.4818 19.5723 24.5547 19.2305 24.5547 18.875C24.5547 18.5104 24.4863 18.1686 24.3496 17.8496C24.2129 17.5306 24.0215 17.2526 23.7754 17.0156C23.5293 16.7786 23.2513 16.5872 22.9414 16.4414C22.6315 16.2956 22.2852 16.2272 21.9023 16.2363C21.5378 16.2363 21.196 16.3047 20.877 16.4414C20.5579 16.5781 20.2799 16.7695 20.043 17.0156C19.806 17.2617 19.6146 17.5397 19.4688 17.8496C19.3229 18.1595 19.2546 18.5013 19.2637 18.875C19.2637 19.2396 19.332 19.5814 19.4688 19.9004C19.6055 20.2194 19.7923 20.4974 20.0293 20.7344C20.2663 20.9714 20.5488 21.1628 20.877 21.3086C21.2051 21.4544 21.5469 21.5228 21.9023 21.5137Z" fill="white"/>
</g>
<defs>
<clipPath id="clip0_2215_4720">
<rect width="28" height="28" fill="white" transform="translate(0 0.5)"/>
</clipPath>
</defs>
</svg>
