<svg width="29" height="29" viewBox="0 0 29 29" fill="none" xmlns="http://www.w3.org/2000/svg">
<g clip-path="url(#clip0_2215_4715)">
<path d="M26.5338 12.7073C26.4341 9.66389 25.1766 6.77323 23.0181 4.6254C20.7418 2.34865 17.7164 1.09521 14.4999 1.09521C8.0035 1.09521 2.69531 6.26603 2.4665 12.7073C1.96558 12.9292 1.53976 13.2916 1.24064 13.7506C0.941527 14.2096 0.78195 14.7455 0.78125 15.2934V18.4705C0.782061 19.2208 1.08045 19.9401 1.61096 20.4706C2.14147 21.0011 2.86075 21.2995 3.611 21.3003C4.09642 21.2997 4.56179 21.1066 4.90503 20.7634C5.24827 20.4201 5.44136 19.9548 5.44194 19.4693V14.2942C5.44194 13.3461 4.71481 12.573 3.79037 12.4812C4.13162 6.86934 8.80325 2.40771 14.4999 2.40771C17.3664 2.40771 20.0619 3.52509 22.0906 5.55378C23.9534 7.41665 25.0437 9.84478 25.2077 12.4816C24.2842 12.5743 23.5584 13.347 23.5584 14.2942V19.4689C23.5584 20.4248 24.2969 21.2027 25.2322 21.2837V22.5913C25.2314 23.2994 24.9498 23.9783 24.449 24.4789C23.9483 24.9796 23.2694 25.2611 22.5613 25.2618H20.5834C20.45 24.8731 20.1983 24.5358 19.8635 24.2974C19.5286 24.059 19.1276 23.9315 18.7166 23.9327H16.6778C16.3851 23.9327 16.1042 23.9948 15.847 24.1147C15.5025 24.2739 15.2108 24.5282 15.0061 24.8477C14.8015 25.1672 14.6925 25.5386 14.692 25.9181C14.692 26.4492 14.8989 26.948 15.2739 27.3212C15.4576 27.5064 15.6764 27.6533 15.9174 27.7534C16.1584 27.8534 16.4169 27.9046 16.6778 27.9039H18.7166C19.5618 27.9039 20.3069 27.3575 20.5847 26.5743H22.5613C24.758 26.5743 26.5447 24.7876 26.5447 22.5913V21.05C27.0427 20.8269 27.4656 20.4647 27.7625 20.0069C28.0595 19.5491 28.2179 19.0153 28.2186 18.4697V15.2925C28.2186 14.1402 27.5247 13.1479 26.5338 12.7073ZM4.129 14.2942V19.4689C4.129 19.7546 3.89669 19.9873 3.61056 19.9873C3.2083 19.9869 2.82266 19.8269 2.53822 19.5424C2.25378 19.258 2.09378 18.8723 2.09331 18.4701V15.293C2.09378 14.8907 2.25378 14.5051 2.53822 14.2206C2.82266 13.9362 3.2083 13.7762 3.61056 13.7757C3.89669 13.7757 4.129 14.0085 4.129 14.2942ZM19.375 26.059C19.3424 26.2096 19.2593 26.3447 19.1395 26.4416C19.0196 26.5386 18.8703 26.5918 18.7161 26.5923H16.6774C16.498 26.5923 16.3296 26.5223 16.2009 26.3937C16.1383 26.3315 16.0887 26.2575 16.0549 26.1761C16.0211 26.0946 16.0038 26.0072 16.0041 25.919C16.0045 25.7406 16.0756 25.5696 16.2018 25.4435C16.328 25.3174 16.499 25.2464 16.6774 25.2461H18.7161C18.8955 25.2461 19.0639 25.3157 19.1921 25.4443C19.319 25.5707 19.389 25.7396 19.389 25.919C19.3894 25.9671 19.3842 26.0152 19.375 26.059ZM26.9061 18.4701C26.9057 18.8723 26.7457 19.258 26.4612 19.5424C26.1768 19.8269 25.7911 19.9869 25.3889 19.9873C25.2514 19.9872 25.1196 19.9326 25.0224 19.8354C24.9252 19.7382 24.8706 19.6064 24.8704 19.4689V14.2942C24.8704 14.0085 25.1027 13.7757 25.3889 13.7757C25.7911 13.7762 26.1768 13.9362 26.4612 14.2206C26.7457 14.5051 26.9057 14.8907 26.9061 15.293V18.4701Z" fill="white"/>
<path d="M18.7494 18.6963C19.4866 18.6955 20.1934 18.4023 20.7147 17.881C21.2361 17.3596 21.5293 16.6528 21.5301 15.9156V10.2495C21.5301 9.50837 21.2405 8.81012 20.7146 8.28425C20.1887 7.75837 19.4909 7.46875 18.7494 7.46875H10.2505C9.51323 7.46956 8.8064 7.76279 8.28508 8.28411C7.76377 8.80542 7.47054 9.51225 7.46973 10.2495V15.9156C7.47054 16.6528 7.76377 17.3596 8.28508 17.881C8.8064 18.4023 9.51323 18.6955 10.2505 18.6963H10.3025V20.1646C10.3017 20.3438 10.3363 20.5215 10.4043 20.6874C10.4724 20.8533 10.5725 21.0041 10.6991 21.1311C10.8256 21.2581 10.976 21.3588 11.1416 21.4275C11.3072 21.4962 11.4848 21.5315 11.664 21.5313C11.8432 21.5317 12.0206 21.496 12.1857 21.4263C12.3507 21.3566 12.5001 21.2544 12.6248 21.1257L15.0674 18.6963H18.7494ZM14.3345 17.5746L11.6912 20.2035C11.6794 20.2157 11.6706 20.2249 11.6457 20.214C11.6155 20.2017 11.6155 20.1821 11.6155 20.1646V18.0401C11.6155 17.866 11.5463 17.6991 11.4233 17.576C11.3002 17.453 11.1333 17.3838 10.9592 17.3838H10.2509C9.86165 17.3833 9.48847 17.2285 9.21322 16.9533C8.93797 16.678 8.78313 16.3048 8.78266 15.9156V10.2495C8.78313 9.86024 8.93797 9.48705 9.21322 9.2118C9.48847 8.93655 9.86165 8.78171 10.2509 8.78125H18.7498C19.1409 8.78125 19.5089 8.93437 19.7871 9.21219C20.0654 9.49044 20.218 9.85881 20.218 10.2495V15.9156C20.2176 16.3048 20.0627 16.678 19.7875 16.9533C19.5122 17.2285 19.1391 17.3833 18.7498 17.3838H14.7974C14.6237 17.3838 14.4575 17.4525 14.3345 17.5746Z" fill="white"/>
<path d="M11.3119 12.2192C10.7782 12.2192 10.3438 12.6541 10.3438 13.1874C10.3438 13.7207 10.7786 14.1556 11.3119 14.1556C11.8461 14.1556 12.281 13.7207 12.281 13.1874C12.281 12.6541 11.8466 12.2192 11.3119 12.2192ZM14.4996 12.2192C13.9658 12.2192 13.5314 12.6541 13.5314 13.1874C13.5314 13.7207 13.9663 14.1556 14.4996 14.1556C15.0342 14.1556 15.4686 13.7207 15.4686 13.1874C15.4686 12.6541 15.0342 12.2192 14.4996 12.2192ZM17.6872 12.2192C17.1534 12.2192 16.719 12.6541 16.719 13.1874C16.719 13.7207 17.1539 14.1556 17.6872 14.1556C18.2214 14.1556 18.6562 13.7207 18.6562 13.1874C18.6562 12.6541 18.2214 12.2192 17.6872 12.2192Z" fill="white"/>
</g>
<defs>
<clipPath id="clip0_2215_4715">
<rect width="28" height="28" fill="white" transform="translate(0.5 0.5)"/>
</clipPath>
</defs>
</svg>
