<svg width="24" height="24" viewBox="0 0 24 24" fill="none" xmlns="http://www.w3.org/2000/svg">
<path d="M11.9995 2.90039C17.0252 2.90039 21.0999 6.97439 21.1001 12C21.1001 17.0258 17.0253 21.1006 11.9995 21.1006C6.9739 21.1004 2.8999 17.0257 2.8999 12C2.90011 6.97452 6.97403 2.9006 11.9995 2.90039ZM11.9995 12.7002C9.37624 12.7003 7.11714 14.2547 6.09033 16.4902L5.95557 16.7822L6.16553 17.0254C7.57674 18.6624 9.66731 19.7001 11.9995 19.7002C14.3318 19.7002 16.4232 18.6624 17.8345 17.0254L18.0435 16.7822L17.9097 16.4902C16.8828 14.2545 14.623 12.7002 11.9995 12.7002ZM11.9995 5.5C10.3981 5.50021 9.1001 6.7989 9.1001 8.40039C9.1001 10.0019 10.3981 11.3006 11.9995 11.3008C13.6011 11.3008 14.8999 10.002 14.8999 8.40039C14.8999 6.79876 13.6011 5.5 11.9995 5.5Z" stroke="#74B31B"/>
</svg>
